# File created by Blade
# Date/Time:  Mon Nov 15 14:44:42 2010
#---------------------------------------------------------
:version 1.10
:name HOM
:units
  mass 1.0
  length 1.000000
  angle deg
:documentation
     Acclaim Skeleton File
:root
   axis xyz
   order TX TY TZ RX RY RZ
   position 0.000000 0.000000 0.000000
   orientation 0 0 0
:bonedata
   begin
      id 1
      name LeftUpLeg_dum
      direction 1.000000 0.000000 0.000000
      length 4.719518
      axis 0.0 0.0 0.0 xyz
   end
   begin
      id 2
      name RightUpLeg_dum
      direction -1.000000 0.000000 0.000000
      length 4.719518
      axis 0.0 0.0 0.0 xyz
   end
   begin
      id 3
      name Spine_dum
      direction 0.000000 1.000000 0.000000
      length 0.039370
      axis 0.0 0.0 0.0 xyz
   end
   begin
      id 4
      name LeftUpLeg
      direction 0.000000 -1.000000 0.000000
      length 19.141694
      axis 0.0 0.0 0.0 xyz
      dof rx ry rz
   end
   begin
      id 5
      name LeftLeg
      direction 0.000000 -1.000000 0.000000
      length 19.555040
      axis 0.0 0.0 0.0 xyz
      dof rx ry rz
   end
   begin
      id 6
      name LeftFoot
      direction 0.000000 -0.258819 0.965926
      length 6.929396
      axis 15.0 0.0 0.0 xyz
      dof rx ry rz
   end
   begin
      id 7
      name LeftToeBase
      direction 0.000000 0.000000 1.000000
      length 2.952750
      axis 0.0 0.0 0.0 xyz
      dof rx ry rz
   end
   begin
      id 8
      name RightUpLeg
      direction 0.000000 -1.000000 0.000000
      length 19.141694
      axis 0.0 0.0 0.0 xyz
      dof rx ry rz
   end
   begin
      id 9
      name RightLeg
      direction 0.000000 -1.000000 0.000000
      length 19.555040
      axis 0.0 0.0 0.0 xyz
      dof rx ry rz
   end
   begin
      id 10
      name RightFoot
      direction 0.000000 -0.258819 0.965926
      length 6.929396
      axis 15.0 0.0 0.0 xyz
      dof rx ry rz
   end
   begin
      id 11
      name RightToeBase
      direction 0.000000 0.000000 1.000000
      length 2.952750
      axis 0.0 0.0 0.0 xyz
      dof rx ry rz
   end
   begin
      id 12
      name Spine
      direction 0.000000 1.000000 0.000000
      length 11.965764
      axis 0.0 0.0 0.0 xyz
      dof rx ry rz
   end
   begin
      id 13
      name Spine1
      direction 0.000000 1.000000 0.000000
      length 0.000000
      axis 0.0 0.0 0.0 xyz
      dof rx ry rz
   end
   begin
      id 14
      name Spine1_dum1
      direction 0.000000 1.000000 0.000000
      length 9.788721
      axis 0.0 0.0 0.0 xyz
   end
   begin
      id 15
      name Spine1_dum2
      direction 0.000000 1.000000 0.000000
      length 9.788721
      axis 0.0 0.0 0.0 xyz
   end
   begin
      id 16
      name Spine1_dum3
      direction 0.000000 1.000000 0.000000
      length 9.788721
      axis 0.0 0.0 0.0 xyz
   end
   begin
      id 17
      name Neck
      direction 0.000000 1.000000 0.000000
      length 7.029632
      axis 0.0 0.0 0.0 xyz
      dof rx ry rz
   end
   begin
      id 18
      name Head
      direction 0.000000 1.000000 0.000000
      length 4.527550
      axis 0.0 0.0 0.0 xyz
      dof rx ry rz
   end
   begin
      id 19
      name LeftShoulder
      direction 1.000000 -0.000004 0.000000
      length 9.320257
      axis 0.0 0.0 -90.0 xyz
      dof rx ry rz
   end
   begin
      id 20
      name LeftArm
      direction 1.000000 -0.000004 0.000000
      length 12.801352
      axis 0.0 0.0 -90.0 xyz
      dof rx ry rz
   end
   begin
      id 21
      name LeftForeArm
      direction 1.000000 -0.000004 0.000000
      length 11.278127
      axis 0.0 0.0 -90.0 xyz
      dof rx ry rz
   end
   begin
      id 22
      name LeftHand
      direction 0.000000 0.000000 0.000000
      length 0.000000
      axis 0.0 0.0 -90.0 xyz
      dof rx ry rz
   end
   begin
      id 23
      name LeftHand_dum1
      direction 0.000000 0.000000 0.000000
      length 0.000000
      axis 0.0 0.0 -90.0 xyz
   end
   begin
      id 24
      name LeftHand_dum2
      direction 1.000000 -0.000004 0.000000
      length 3.937000
      axis 0.0 0.0 -90.0 xyz
   end
   begin
      id 25
      name LeftHandThumb
      direction 0.000000 0.000000 1.000000
      length 3.937000
      axis 0.0 0.0 -90.0 xyz
      dof rx ry rz
   end
   begin
      id 26
      name RightShoulder
      direction -1.000000 -0.000004 0.000000
      length 9.320257
      axis 0.0 0.0 90.0 xyz
      dof rx ry rz
   end
   begin
      id 27
      name RightArm
      direction -1.000000 -0.000004 0.000000
      length 12.801352
      axis 0.0 0.0 90.0 xyz
      dof rx ry rz
   end
   begin
      id 28
      name RightForeArm
      direction -1.000000 -0.000004 0.000000
      length 11.278127
      axis 0.0 0.0 90.0 xyz
      dof rx ry rz
   end
   begin
      id 29
      name RightHand
      direction 0.000000 0.000000 0.000000
      length 0.000000
      axis 0.0 0.0 90.0 xyz
      dof rx ry rz
   end
   begin
      id 30
      name RightHand_dum1
      direction 0.000000 0.000000 0.000000
      length 0.000000
      axis 0.0 0.0 90.0 xyz
   end
   begin
      id 31
      name RightHand_dum2
      direction -1.000000 -0.000004 0.000000
      length 5.393690
      axis 0.0 0.0 90.0 xyz
   end
   begin
      id 32
      name RightHandThumb
      direction 0.000000 0.000000 1.000000
      length 3.937000
      axis 0.0 0.0 90.0 xyz
      dof rx ry rz
   end
:hierarchy
   begin
      root LeftUpLeg_dum RightUpLeg_dum Spine_dum
      LeftUpLeg_dum LeftUpLeg
      RightUpLeg_dum RightUpLeg
      Spine_dum Spine
      LeftUpLeg LeftLeg
      LeftLeg LeftFoot
      LeftFoot LeftToeBase
      RightUpLeg RightLeg
      RightLeg RightFoot
      RightFoot RightToeBase
      Spine Spine1
      Spine1 Spine1_dum1 Spine1_dum2 Spine1_dum3
      Spine1_dum1 Neck
      Spine1_dum2 LeftShoulder
      Spine1_dum3 RightShoulder
      Neck Head
      LeftShoulder LeftArm
      LeftArm LeftForeArm
      LeftForeArm LeftHand
      LeftHand LeftHand_dum1 LeftHand_dum2
      LeftHand_dum1 LeftHandThumb
      RightShoulder RightArm
      RightArm RightForeArm
      RightForeArm RightHand
      RightHand RightHand_dum1 RightHand_dum2
      RightHand_dum1 RightHandThumb
   end

# File created by Blade
# Date/Time:  Mon Nov 15 14:56:25 2010
# Frame Rate: 200.000 fps
#------------------------------------------------------
:FULLY-SPECIFIED
:DEGREES
320
root  5.640718 39.708399 -52.575565 -9.765754 0.954408 -4.585540
LeftUpLeg  -13.802974 11.515468 4.044401
LeftLeg  58.994002 -0.000000 -0.000000
LeftFoot  4.540025 7.641231 6.987502
LeftToeBase  -19.797282 0.000000 -0.000000
RightUpLeg  12.303861 -1.034915 9.726856
RightLeg  11.450718 -0.000000 0.000000
RightFoot  -8.724750 -15.268649 -5.886849
RightToeBase  -28.368862 0.000000 -0.000000
Spine  14.760819 -1.122536 2.470234
Spine1  3.353998 3.013060 2.064690
Neck  13.585893 -6.698935 -0.449544
Head  -22.282185 -6.351578 3.219902
LeftShoulder  -9.719337 12.614860 1.580308
LeftArm  14.053917 11.370545 -77.097914
LeftForeArm  18.312178 -0.000000 0.000000
LeftHand  -10.908917 11.003136 -11.335738
LeftHandThumb  0.000000 -0.000000 0.000000
RightShoulder  -10.155886 -10.765447 1.362276
RightArm  20.389203 -19.476857 69.768308
RightForeArm  23.856998 -0.000000 0.000000
RightHand  -3.359944 -1.310831 17.478393
RightHandThumb  0.000000 -0.000000 0.000000
321
root  5.632127 39.722579 -52.255553 -9.770546 0.690495 -4.471949
LeftUpLeg  -14.497528 11.786070 3.689038
LeftLeg  57.872811 -0.000000 -0.000000
LeftFoot  4.138338 7.861387 6.651422
LeftToeBase  -19.784197 0.000000 -0.000000
RightUpLeg  13.157273 -0.850060 9.651858
RightLeg  10.687408 -0.000000 0.000000
RightFoot  -8.556717 -15.172255 -5.840263
RightToeBase  -28.768879 0.000000 -0.000000
Spine  14.839967 -0.976104 2.430728
Spine1  3.276749 3.133290 1.915239
Neck  13.667746 -6.601323 -0.524515
Head  -22.422929 -6.387488 3.297724
LeftShoulder  -9.827363 12.733269 1.494849
LeftArm  13.749377 11.053437 -77.029991
LeftForeArm  17.983623 -0.000000 0.000000
LeftHand  -11.163872 11.148324 -11.571115
LeftHandThumb  0.000000 -0.000000 0.000000
RightShoulder  -10.065483 -10.686100 1.260401
RightArm  20.486972 -19.433948 69.792266
RightForeArm  24.359519 -0.000000 0.000000
RightHand  -3.333465 -1.415019 17.271740
RightHandThumb  0.000000 -0.000000 0.000000
322
root  5.624965 39.733638 -51.933450 -9.787185 0.430977 -4.343381
LeftUpLeg  -15.099217 12.087202 3.323763
LeftLeg  56.557678 -0.000000 -0.000000
LeftFoot  3.905837 8.064453 6.426884
LeftToeBase  -19.804853 0.000000 -0.000000
RightUpLeg  14.019108 -0.663719 9.554826
RightLeg  9.946505 -0.000000 0.000000
RightFoot  -8.353296 -15.029513 -5.845845
RightToeBase  -28.675046 0.000000 -0.000000
Spine  14.926796 -0.849404 2.389232
Spine1  3.205692 3.232397 1.736380
Neck  13.760374 -6.481879 -0.606541
Head  -22.590621 -6.401321 3.379462
LeftShoulder  -9.965648 12.853719 1.399522
LeftArm  13.427364 10.775924 -76.928295
LeftForeArm  17.732004 -0.000000 0.000000
LeftHand  -11.406103 11.247627 -11.698178
LeftHandThumb  0.000000 -0.000000 0.000000
RightShoulder  -9.953856 -10.590191 1.158067
RightArm  20.574377 -19.426757 69.822373
RightForeArm  24.882022 -0.000000 0.000000
RightHand  -3.358166 -1.433747 17.004138
RightHandThumb  0.000000 -0.000000 0.000000
323
root  5.618152 39.739707 -51.610384 -9.804406 0.171498 -4.214740
LeftUpLeg  -15.703542 12.384555 2.954856
LeftLeg  55.242545 -0.000000 -0.000000
LeftFoot  3.672415 8.266613 6.201401
LeftToeBase  -19.825509 0.000000 -0.000000
RightUpLeg  14.880598 -0.475940 9.460612
RightLeg  9.205601 -0.000000 0.000000
RightFoot  -8.150025 -14.886753 -5.850899
RightToeBase  -28.581213 0.000000 -0.000000
Spine  15.013531 -0.722641 2.347930
Spine1  3.134319 3.331282 1.557381
Neck  13.852808 -6.362303 -0.688353
Head  -22.758338 -6.414916 3.461242
LeftShoulder  -10.104205 12.973945 1.303852
LeftArm  13.105144 10.498976 -76.825107
LeftForeArm  17.480385 -0.000000 0.000000
LeftHand  -11.648643 11.346402 -11.825713
LeftHandThumb  0.000000 -0.000000 0.000000
RightShoulder  -9.842437 -10.494087 1.055955
RightArm  20.661781 -19.419608 69.852491
RightForeArm  25.404526 -0.000000 0.000000
RightHand  -3.382779 -1.452590 16.736541
RightHandThumb  0.000000 -0.000000 0.000000
324
root  5.611023 39.739309 -51.286936 -9.815675 -0.088358 -4.107425
LeftUpLeg  -16.244651 12.619269 2.610499
LeftLeg  53.792607 -0.000000 -0.000000
LeftFoot  3.465198 8.378492 5.885895
LeftToeBase  -19.616013 0.000000 -0.000000
RightUpLeg  15.715803 -0.307862 9.384882
RightLeg  8.508280 -0.000000 0.000000
RightFoot  -7.990205 -14.798929 -5.888626
RightToeBase  -28.497030 0.000000 -0.000000
Spine  15.091493 -0.613420 2.317505
Spine1  3.067714 3.417867 1.392769
Neck  13.936133 -6.228042 -0.780623
Head  -22.902298 -6.421016 3.508978
LeftShoulder  -10.255224 13.107051 1.202654
LeftArm  12.779050 10.201526 -76.718954
LeftForeArm  17.262754 -0.000000 0.000000
LeftHand  -11.781975 11.416485 -12.001013
LeftHandThumb  0.000000 -0.000000 0.000000
RightShoulder  -9.706533 -10.409954 0.922793
RightArm  20.743105 -19.353815 69.929638
RightForeArm  25.934340 -0.000000 0.000000
RightHand  -3.391324 -1.615942 16.586867
RightHandThumb  0.000000 -0.000000 0.000000
325
root  5.603989 39.733068 -50.963697 -9.827431 -0.348192 -4.000057
LeftUpLeg  -16.787695 12.850792 2.263567
LeftLeg  52.342670 -0.000000 0.000000
LeftFoot  3.257301 8.489239 5.569891
LeftToeBase  -19.406518 0.000000 -0.000000
RightUpLeg  16.550775 -0.138698 9.311611
RightLeg  7.810959 -0.000000 0.000000
RightFoot  -7.830510 -14.711005 -5.926085
RightToeBase  -28.412848 0.000000 -0.000000
Spine  15.169395 -0.504157 2.287229
Spine1  3.000854 3.504261 1.228043
Neck  14.019219 -6.093648 -0.872673
Head  -23.046264 -6.426996 3.556730
LeftShoulder  -10.406567 13.239897 1.101042
LeftArm  12.452698 9.904676 -76.611181
LeftForeArm  17.045123 -0.000000 0.000000
LeftHand  -11.915559 11.486168 -12.176521
LeftHandThumb  0.000000 -0.000000 0.000000
RightShoulder  -9.570865 -10.325512 0.789870
RightArm  20.824490 -19.288126 70.006854
RightForeArm  26.464155 -0.000000 0.000000
RightHand  -3.399442 -1.779316 16.437204
RightHandThumb  0.000000 -0.000000 0.000000
